<?xml version="1.0" standalone="no"?>
<!DOCTYPE svg PUBLIC "-//W3C//DTD SVG 20010904//EN"
 "http://www.w3.org/TR/2001/REC-SVG-20010904/DTD/svg10.dtd">
<svg version="1.0" xmlns="http://www.w3.org/2000/svg"
 width="584.000000pt" height="280.000000pt" viewBox="0 0 584.000000 280.000000"
 preserveAspectRatio="xMidYMid meet">
<metadata>
Created by potrace 1.12, written by Peter Selinger 2001-2015
</metadata>
<g transform="translate(0.000000,280.000000) scale(0.100000,-0.100000)"
fill="#000000" stroke="none">
<path d="M5285 2748 c-10 -6 -33 -14 -50 -18 -24 -5 -32 -13 -39 -42 -7 -27
-16 -38 -35 -43 -35 -9 -175 -80 -225 -114 -195 -134 -483 -200 -825 -188
-214 8 -283 20 -687 126 -379 98 -499 125 -674 147 -239 30 -465 5 -633 -70
-99 -43 -325 -185 -426 -266 -218 -176 -350 -340 -477 -597 -133 -269 -218
-387 -352 -495 -149 -118 -290 -164 -549 -177 -146 -7 -167 -11 -217 -35 -61
-30 -86 -61 -93 -116 -11 -78 52 -140 141 -140 36 0 72 11 137 41 56 25 126
48 191 60 293 58 333 69 424 114 204 100 334 268 601 775 129 243 168 302 236
351 48 35 53 35 61 6 20 -83 166 -241 307 -333 l90 -59 -33 -25 c-64 -48 -118
-110 -118 -135 0 -15 31 -72 75 -137 l74 -111 -29 -34 c-55 -62 -54 -64 191
-326 84 -89 143 -163 175 -218 63 -108 140 -189 178 -189 17 0 42 -12 63 -30
40 -36 83 -39 131 -10 26 16 32 26 32 53 0 39 -23 76 -117 190 -62 75 -64 78
-54 113 24 88 -31 213 -151 340 l-48 51 122 88 c68 49 164 129 214 179 77 76
93 98 100 134 l9 42 105 -96 c214 -195 360 -285 475 -292 37 -3 71 1 84 8 13
6 24 10 26 8 1 -2 -20 -41 -47 -88 -79 -134 -154 -298 -178 -388 -49 -181
-177 -305 -345 -332 -78 -13 -115 -37 -145 -95 -21 -42 -25 -65 -28 -158 -4
-102 -2 -110 19 -133 40 -43 68 -30 111 51 45 84 108 145 175 170 189 70 325
183 403 335 54 106 102 178 171 255 65 72 185 185 197 185 5 0 47 -80 95 -177
102 -212 127 -269 127 -292 0 -9 -34 -50 -76 -91 -41 -41 -85 -91 -96 -110
-12 -19 -49 -64 -84 -100 -79 -82 -88 -103 -62 -153 35 -70 58 -65 204 46 61
45 132 96 158 112 32 20 72 62 122 129 93 124 94 140 29 290 -25 57 -53 141
-64 187 -24 101 -45 239 -38 246 3 3 52 20 108 39 190 64 272 120 323 223 76
148 246 376 350 468 60 52 121 82 268 129 62 20 125 43 140 50 22 12 32 11 62
-1 54 -23 84 -19 117 15 24 23 28 34 20 47 -7 14 -3 21 20 35 16 10 33 28 38
41 5 12 18 31 30 41 35 32 27 71 -26 130 -30 32 -55 73 -67 107 -29 82 -53
116 -99 137 -46 22 -179 47 -202 38 -9 -3 -18 6 -25 30 -6 19 -18 41 -27 49
-17 18 -60 19 -88 3z"/>
</g>
</svg>
