<?xml version="1.0" encoding="iso-8859-1"?>
<!-- Generator: Adobe Illustrator 16.0.0, SVG Export Plug-In . SVG Version: 6.00 Build 0)  -->
<!DOCTYPE svg PUBLIC "-//W3C//DTD SVG 1.1//EN" "http://www.w3.org/Graphics/SVG/1.1/DTD/svg11.dtd">
<svg version="1.1" id="Capa_1" xmlns="http://www.w3.org/2000/svg" xmlns:xlink="http://www.w3.org/1999/xlink" x="0px" y="0px"
	 width="29.837px" height="29.837px" viewBox="0 0 29.837 29.837" style="enable-background:new 0 0 29.837 29.837;"
	 xml:space="preserve">
<g>
	<g>
		<path d="M5.987,8.189C5.944,8.334,5.898,8.48,5.872,8.634C5.841,8.824,5.823,9.021,5.823,9.22c0,1.967,1.594,3.561,3.56,3.561
			c1.964,0,3.558-1.593,3.558-3.561c0-0.393-0.079-0.763-0.196-1.118l0.722-0.997l-1.294-0.456l0.253-1.324l-1.581,0.452
			l-0.728-1.524l-1.35,1.409L7.721,4.449L7.228,6.05L5.55,5.5l0.632,1.414L4.96,7.259L5.987,8.189z"/>
		<path d="M18.051,20.18v-1.695h-3.115l-1.243-4.71l-2.547-0.459c0,0-0.487,1.496-1.828,1.575c-1.339,0.077-1.847-1.575-1.847-1.575
			l-2.15,0.506l-1.725,4.664h-1.84v1.693h1.019v9.659h0.828v-9.659h2.601l0.014,1.196H4.872v0.583h1.152v7.438h2.548v-7.438h1.686
			v7.438h2.548v-7.438h1.003v-0.583h-1.178v-1.196h3.318v9.659h0.828v-9.659h1.273V20.18z M5.385,18.484l0.776-2.158l0.023,2.158
			H5.385z M12.632,16l0.774,2.484h-0.775L12.632,16z"/>
		<circle cx="22.604" cy="4.201" r="4.201"/>
		<polygon points="26.396,27.918 26.107,27.918 26.107,20.441 26.107,19.736 26.107,18.781 26.326,18.781 26.404,17.213 
			27.846,17.213 27.611,9.677 24.227,9.033 22.676,10.89 21.074,9.033 17.369,9.677 17.369,17.213 18.691,17.213 18.771,18.781 
			19.038,18.781 19.038,19.736 19.038,20.441 19.038,27.918 18.75,27.918 17.062,28.284 17.062,29.837 18.499,29.837 20.174,29.564 
			20.189,29.837 22.044,29.837 22.044,28.105 22.044,27.918 22.044,20.441 23.102,20.441 23.102,27.918 23.102,28.105 
			23.102,29.837 24.956,29.837 24.971,29.564 26.646,29.837 28.081,29.837 28.081,28.284 		"/>
	</g>
</g>
<g>
</g>
<g>
</g>
<g>
</g>
<g>
</g>
<g>
</g>
<g>
</g>
<g>
</g>
<g>
</g>
<g>
</g>
<g>
</g>
<g>
</g>
<g>
</g>
<g>
</g>
<g>
</g>
<g>
</g>
</svg>
